# Blender v2.83.2 OBJ File: ''
# www.blender.org
mtllib quartz_crystal.mtl
o 1
v 0.500000 0.301100 0.375100
v 0.393900 -0.001400 0.441300
v 0.393900 0.301100 0.558800
v 0.500000 0.604900 0.495200
v 0.500000 -0.001400 0.624900
v 0.606100 0.301100 0.558800
v 0.606100 -0.001400 0.441300
v 0.500000 -0.305100 0.504900
vt 0.000000 1.000000
vt 1.000000 1.000000
vt 1.000000 0.000000
vt 0.000000 0.000000
vt 0.000000 1.000000
vt 1.000000 1.000000
vt 1.000000 0.000000
vt 0.000000 1.000000
vt 1.000000 1.000000
vt 1.000000 0.000000
vt 0.000000 1.000000
vt 1.000000 1.000000
vt 1.000000 0.000000
vt 0.000000 0.000000
vt 0.000000 1.000000
vt 1.000000 0.000000
vt 0.000000 0.000000
vt 0.000000 1.000000
vt 1.000000 0.000000
vt 0.000000 0.000000
vn -0.8498 0.1923 -0.4908
vn 0.0000 0.2092 0.9779
vn 0.8498 0.1923 -0.4908
vn 0.8497 -0.1924 0.4910
vn -0.0000 -0.2094 -0.9778
vn -0.8497 -0.1924 0.4910
usemtl texture
s off
f 1/1/1 2/2/1 3/3/1 4/4/1
f 3/5/2 5/6/2 6/7/2 4/4/2
f 6/8/3 7/9/3 1/10/3 4/4/3
f 5/11/4 8/12/4 7/13/4 6/14/4
f 7/15/5 8/12/5 2/16/5 1/17/5
f 2/18/6 8/12/6 5/19/6 3/20/6
o 2
v 0.500000 0.225100 0.194100
v 0.393900 -0.036500 0.359800
v 0.393900 0.288000 0.366800
v 0.500000 0.551700 0.203100
v 0.500000 0.026300 0.532400
v 0.606100 0.288000 0.366800
v 0.606100 -0.036500 0.359800
v 0.500000 -0.300100 0.523500
vt 0.000000 1.000000
vt 1.000000 1.000000
vt 1.000000 0.000000
vt 0.000000 0.000000
vt 0.000000 1.000000
vt 1.000000 1.000000
vt 1.000000 0.000000
vt 0.000000 1.000000
vt 1.000000 1.000000
vt 1.000000 0.000000
vt 0.000000 1.000000
vt 1.000000 1.000000
vt 1.000000 0.000000
vt 0.000000 0.000000
vt 0.000000 1.000000
vt 1.000000 0.000000
vt 0.000000 0.000000
vt 0.000000 1.000000
vt 1.000000 0.000000
vt 0.000000 0.000000
vn -0.8499 0.0129 -0.5268
vn 0.0000 0.5311 0.8473
vn 0.8499 0.0129 -0.5268
vn 0.8497 -0.0129 0.5270
vn 0.0000 -0.5313 -0.8472
vn -0.8497 -0.0129 0.5270
usemtl texture
s off
f 9/21/7 10/22/7 11/23/7 12/24/7
f 11/25/8 13/26/8 14/27/8 12/24/8
f 14/28/9 15/29/9 9/30/9 12/24/9
f 13/31/10 16/32/10 15/33/10 14/34/10
f 15/35/11 16/32/11 10/36/11 9/37/11
f 10/38/12 16/32/12 13/39/12 11/40/12
o 3
v 0.169000 0.203700 0.437500
v 0.300800 -0.068600 0.562600
v 0.265200 0.248600 0.621300
v 0.134900 0.523000 0.497600
v 0.493000 0.021000 0.562500
v 0.361300 0.293400 0.437500
v 0.397000 -0.023700 0.378700
v 0.527200 -0.298200 0.502500
vt 0.000000 1.000000
vt 1.000000 1.000000
vt 1.000000 0.000000
vt 0.000000 0.000000
vt 0.000000 1.000000
vt 1.000000 1.000000
vt 1.000000 0.000000
vt 0.000000 1.000000
vt 1.000000 1.000000
vt 1.000000 0.000000
vt 0.000000 1.000000
vt 1.000000 1.000000
vt 1.000000 0.000000
vt 0.000000 0.000000
vt 0.000000 1.000000
vt 1.000000 0.000000
vt 0.000000 0.000000
vt 0.000000 1.000000
vt 1.000000 0.000000
vt 0.000000 0.000000
vn -0.8514 -0.1848 0.4908
vn 0.6792 0.5477 0.4886
vn -0.0814 0.1744 -0.9813
vn 0.8519 0.1851 -0.4899
vn -0.6789 -0.5478 -0.4889
vn 0.0817 -0.1741 0.9813
usemtl texture
s off
f 17/41/13 18/42/13 19/43/13 20/44/13
f 19/45/14 21/46/14 22/47/14 20/44/14
f 22/48/15 23/49/15 17/50/15 20/44/15
f 21/51/16 24/52/16 23/53/16 22/54/16
f 23/55/17 24/52/17 18/56/17 17/57/17
f 18/58/18 24/52/18 21/59/18 19/60/18
o 4
v 0.732900 0.249500 0.375100
v 0.508900 0.020200 0.441300
v 0.636700 0.294300 0.558800
v 0.861300 0.524800 0.495200
v 0.605100 -0.024700 0.624900
v 0.829100 0.204600 0.558800
v 0.701200 -0.069500 0.441300
v 0.476700 -0.300000 0.504900
vt 0.000000 1.000000
vt 1.000000 1.000000
vt 1.000000 0.000000
vt 0.000000 0.000000
vt 0.000000 1.000000
vt 1.000000 1.000000
vt 1.000000 0.000000
vt 0.000000 1.000000
vt 1.000000 1.000000
vt 1.000000 0.000000
vt 0.000000 1.000000
vt 1.000000 1.000000
vt 1.000000 0.000000
vt 0.000000 0.000000
vt 0.000000 1.000000
vt 1.000000 0.000000
vt 0.000000 0.000000
vt 0.000000 1.000000
vt 1.000000 0.000000
vt 0.000000 0.000000
vn -0.6888 0.5335 -0.4908
vn 0.0884 0.1896 0.9779
vn 0.8513 -0.1848 -0.4910
vn 0.6889 -0.5335 0.4907
vn -0.0885 -0.1897 -0.9778
vn -0.8513 0.1846 0.4912
usemtl texture
s off
f 25/61/19 26/62/19 27/63/19 28/64/19
f 27/65/20 29/66/20 30/67/20 28/64/20
f 30/68/21 31/69/21 25/70/21 28/64/21
f 29/71/22 32/72/22 31/73/22 30/74/22
f 31/75/23 32/72/23 26/76/23 25/77/23
f 26/78/24 32/72/24 29/79/24 27/80/24
o 5
v 0.500000 0.302300 0.619700
v 0.393900 0.000100 0.551900
v 0.393900 0.224600 0.786200
v 0.500000 0.526800 0.856900
v 0.500000 -0.077500 0.718300
v 0.606100 0.224600 0.786200
v 0.606100 0.000100 0.551900
v 0.500000 -0.302100 0.481200
vt 0.000000 1.000000
vt 1.000000 1.000000
vt 1.000000 0.000000
vt 0.000000 0.000000
vt 0.000000 1.000000
vt 1.000000 1.000000
vt 1.000000 0.000000
vt 0.000000 1.000000
vt 1.000000 1.000000
vt 1.000000 0.000000
vt 0.000000 1.000000
vt 1.000000 1.000000
vt 1.000000 0.000000
vt 0.000000 0.000000
vt 0.000000 1.000000
vt 1.000000 0.000000
vt 0.000000 0.000000
vt 0.000000 1.000000
vt 1.000000 0.000000
vt 0.000000 0.000000
vn -0.8498 0.3817 -0.3634
vn 0.0000 -0.2236 0.9747
vn 0.8498 0.3817 -0.3634
vn 0.8497 -0.3818 0.3637
vn -0.0000 0.2234 -0.9747
vn -0.8497 -0.3818 0.3637
usemtl texture
s off
f 33/81/25 34/82/25 35/83/25 36/84/25
f 35/85/26 37/86/26 38/87/26 36/84/26
f 38/88/27 39/89/27 33/90/27 36/84/27
f 37/91/28 40/92/28 39/93/28 38/94/28
f 39/95/29 40/92/29 34/96/29 33/97/29
f 34/98/30 40/92/30 37/99/30 35/100/30
