# Blender v2.83.2 OBJ File: 'zychorium.blend'
# www.blender.org
mtllib zychorium.mtl
o inside
v 0.375781 0.644922 0.562500
v 0.500000 0.789844 0.562500
v 0.375781 0.355078 0.562500
v 0.500000 0.210156 0.562500
v 0.624219 0.355078 0.562500
v 0.624219 0.644922 0.562500
v 0.500000 0.937500 0.500000
v 0.312500 0.718750 0.500000
v 0.312500 0.281250 0.500000
v 0.500000 0.062500 0.500000
v 0.687500 0.281250 0.500000
v 0.687500 0.718750 0.500000
v 0.375781 0.644922 0.437500
v 0.500000 0.789844 0.437500
v 0.375781 0.355078 0.437500
v 0.500000 0.210156 0.437500
v 0.624219 0.355078 0.437500
v 0.624219 0.644922 0.437500
vt 0.168750 0.665625
vt 0.500000 0.831250
vt 0.500000 1.000000
vt 0.000000 0.750000
vt 0.168750 0.334375
vt 0.000000 0.250000
vt 0.500000 0.168750
vt 0.500000 -0.000000
vt 0.831250 0.334375
vt 1.000000 0.250000
vt 0.831250 0.665625
vt 1.000000 0.750000
vt 0.831250 0.665625
vt 1.000000 0.750000
vt 0.500000 0.831250
vt 0.831250 0.334375
vt 1.000000 0.250000
vt 0.500000 0.168750
vt 0.168750 0.334375
vt 0.000000 0.250000
vt 0.168750 0.665625
vt 0.000000 0.750000
vn -0.4140 0.3548 0.8383
vn -0.7027 0.0000 0.7115
vn -0.4140 -0.3548 0.8383
vn 0.4140 -0.3548 0.8383
vn 0.7027 0.0000 0.7115
vn 0.4140 0.3548 0.8383
vn 0.0000 0.0000 1.0000
vn -0.4140 0.3548 -0.8383
vn -0.7027 0.0000 -0.7115
vn -0.4140 -0.3548 -0.8383
vn 0.4140 -0.3548 -0.8383
vn 0.7027 0.0000 -0.7115
vn 0.4140 0.3548 -0.8383
vn 0.0000 0.0000 -1.0000
usemtl inside
s off
f 1/1/1 2/2/1 7/3/1 8/4/1
f 3/5/2 1/1/2 8/4/2 9/6/2
f 4/7/3 3/5/3 9/6/3 10/8/3
f 5/9/4 4/7/4 10/8/4 11/10/4
f 6/11/5 5/9/5 11/10/5 12/12/5
f 2/2/6 6/11/6 12/12/6 7/3/6
f 6/11/7 2/2/7 4/7/7 5/9/7
f 1/1/7 3/5/7 4/7/7 2/2/7
f 13/13/8 8/14/8 7/3/8 14/15/8
f 15/16/9 9/17/9 8/14/9 13/13/9
f 16/18/10 10/8/10 9/17/10 15/16/10
f 17/19/11 11/20/11 10/8/11 16/18/11
f 18/21/12 12/22/12 11/20/12 17/19/12
f 14/15/13 7/3/13 12/22/13 18/21/13
f 18/21/14 17/19/14 16/18/14 14/15/14
f 13/13/14 14/15/14 16/18/14 15/16/14
o outside
v 0.375657 0.645067 0.562563
v 0.500000 0.790133 0.562563
v 0.375657 0.354933 0.562563
v 0.500000 0.209866 0.562562
v 0.624343 0.354933 0.562563
v 0.624343 0.645067 0.562563
v 0.500000 0.937937 0.500000
v 0.312312 0.718969 0.500000
v 0.312312 0.281031 0.500000
v 0.500000 0.062062 0.500000
v 0.687688 0.281031 0.500000
v 0.687688 0.718969 0.500000
v 0.375657 0.645067 0.437438
v 0.500000 0.790133 0.437438
v 0.375657 0.354933 0.437437
v 0.500000 0.209866 0.437437
v 0.624343 0.354933 0.437437
v 0.624343 0.645067 0.437438
vt 0.000000 0.000000
vt 1.000000 0.000000
vt 1.000000 1.000000
vt 0.000000 1.000000
vt 0.000000 0.000000
vt 1.000000 0.000000
vt 1.000000 1.000000
vt 0.000000 1.000000
vt 0.000000 0.000000
vt 1.000000 0.000000
vt 1.000000 1.000000
vt 0.000000 1.000000
vt 0.000000 0.000000
vt 1.000000 0.000000
vt 1.000000 1.000000
vt 0.000000 1.000000
vt 0.000000 0.000000
vt 1.000000 0.000000
vt 1.000000 1.000000
vt 0.000000 1.000000
vt 0.000000 0.000000
vt 1.000000 0.000000
vt 1.000000 1.000000
vt 0.000000 1.000000
vt 1.000000 0.000000
vt 0.000000 0.000000
vt 1.000000 0.000000
vt 0.000000 0.000000
vt 1.000000 0.000000
vt 0.000000 0.000000
vt 1.000000 0.000000
vt 0.000000 0.000000
vt 1.000000 0.000000
vt 0.000000 0.000000
vt 1.000000 0.000000
vt 0.000000 0.000000
vn -0.4140 0.3548 0.8383
vn -0.7027 0.0000 0.7115
vn -0.4140 -0.3548 0.8383
vn 0.4140 -0.3548 0.8383
vn 0.7027 0.0000 0.7115
vn 0.4140 0.3548 0.8383
vn -0.4140 0.3548 -0.8383
vn -0.7027 0.0000 -0.7115
vn -0.4140 -0.3548 -0.8383
vn 0.4140 -0.3548 -0.8383
vn 0.7027 0.0000 -0.7115
vn 0.4140 0.3548 -0.8383
usemtl outside
s off
f 19/23/15 20/24/15 25/25/15 26/26/15
f 21/27/16 19/28/16 26/29/16 27/30/16
f 22/31/17 21/32/17 27/33/17 28/34/17
f 23/35/18 22/36/18 28/37/18 29/38/18
f 24/39/19 23/40/19 29/41/19 30/42/19
f 20/43/20 24/44/20 30/45/20 25/46/20
f 31/47/21 26/29/21 25/46/21 32/48/21
f 33/49/22 27/33/22 26/26/22 31/50/22
f 34/51/23 28/37/23 27/30/23 33/52/23
f 35/53/24 29/41/24 28/34/24 34/54/24
f 36/55/25 30/45/25 29/38/25 35/56/25
f 32/57/26 25/25/26 30/42/26 36/58/26
