# Blender v2.83.4 OBJ File: 'zychorium.blend'
# www.blender.org
mtllib zychorium.mtl
o inside
v 0.375781 0.644922 0.562500
v 0.500000 0.789844 0.562500
v 0.375781 0.355078 0.562500
v 0.500000 0.210156 0.562500
v 0.624219 0.355078 0.562500
v 0.624219 0.644922 0.562500
v 0.500000 0.937500 0.500000
v 0.312500 0.718750 0.500000
v 0.312500 0.281250 0.500000
v 0.500000 0.062500 0.500000
v 0.687500 0.281250 0.500000
v 0.687500 0.718750 0.500000
v 0.375781 0.644922 0.437500
v 0.500000 0.789844 0.437500
v 0.375781 0.355078 0.437500
v 0.500000 0.210156 0.437500
v 0.624219 0.355078 0.437500
v 0.624219 0.644922 0.437500
vt 0.000000 0.000000
vt 1.000000 0.000000
vt 1.000000 1.000000
vt 0.000000 1.000000
vt 0.000000 0.000000
vt 1.000000 0.000000
vt 1.000000 1.000000
vt 0.000000 1.000000
vt 0.000000 0.000000
vt 1.000000 0.000000
vt 1.000000 1.000000
vt 0.000000 1.000000
vt 0.000000 0.000000
vt 1.000000 0.000000
vt 1.000000 1.000000
vt 0.000000 1.000000
vt 0.000000 0.000000
vt 1.000000 0.000000
vt 1.000000 1.000000
vt 0.000000 1.000000
vt 0.000000 0.000000
vt 1.000000 0.000000
vt 1.000000 1.000000
vt 0.000000 1.000000
vt 0.000071 0.749965
vt 0.500000 0.999929
vt 0.500000 0.000071
vt 0.000071 0.250036
vt 0.000071 0.749965
vt 0.000071 0.250036
vt 1.000000 0.000000
vt 0.000000 0.000000
vt 1.000000 0.000000
vt 0.000000 0.000000
vt 1.000000 0.000000
vt 0.000000 0.000000
vt 1.000000 0.000000
vt 0.000000 0.000000
vt 1.000000 0.000000
vt 0.000000 0.000000
vt 1.000000 0.000000
vt 0.000000 0.000000
vt 0.999929 0.749965
vt 0.999929 0.250036
vt 0.500000 0.000071
vt 0.500000 0.999929
vt 0.999929 0.749965
vt 0.999929 0.250036
vn -0.4140 0.3548 0.8383
vn -0.7027 0.0000 0.7115
vn -0.4140 -0.3548 0.8383
vn 0.4140 -0.3548 0.8383
vn 0.7027 0.0000 0.7115
vn 0.4140 0.3548 0.8383
vn 0.0000 0.0000 1.0000
vn -0.4140 0.3548 -0.8383
vn -0.7027 0.0000 -0.7115
vn -0.4140 -0.3548 -0.8383
vn 0.4140 -0.3548 -0.8383
vn 0.7027 0.0000 -0.7115
vn 0.4140 0.3548 -0.8383
vn 0.0000 0.0000 -1.0000
usemtl inside
s off
f 1/1/1 2/2/1 7/3/1 8/4/1
f 3/5/2 1/6/2 8/7/2 9/8/2
f 4/9/3 3/10/3 9/11/3 10/12/3
f 5/13/4 4/14/4 10/15/4 11/16/4
f 6/17/5 5/18/5 11/19/5 12/20/5
f 2/21/6 6/22/6 12/23/6 7/24/6
f 6/25/7 2/26/7 4/27/7 5/28/7
f 1/29/7 3/30/7 4/27/7 2/26/7
f 13/31/8 8/7/8 7/24/8 14/32/8
f 15/33/9 9/11/9 8/4/9 13/34/9
f 16/35/10 10/15/10 9/8/10 15/36/10
f 17/37/11 11/19/11 10/12/11 16/38/11
f 18/39/12 12/23/12 11/16/12 17/40/12
f 14/41/13 7/3/13 12/20/13 18/42/13
f 18/43/14 17/44/14 16/45/14 14/46/14
f 13/47/14 14/46/14 16/45/14 15/48/14
o outside
v 0.375657 0.645067 0.562563
v 0.500000 0.790133 0.562563
v 0.375657 0.354933 0.562563
v 0.500000 0.209866 0.562562
v 0.624343 0.354933 0.562563
v 0.624343 0.645067 0.562563
v 0.500000 0.937937 0.500000
v 0.312312 0.718969 0.500000
v 0.312312 0.281031 0.500000
v 0.500000 0.062062 0.500000
v 0.687688 0.281031 0.500000
v 0.687688 0.718969 0.500000
v 0.375657 0.645067 0.437438
v 0.500000 0.790133 0.437438
v 0.375657 0.354933 0.437437
v 0.500000 0.209866 0.437437
v 0.624343 0.354933 0.437437
v 0.624343 0.645067 0.437438
vt 0.000000 0.000000
vt 1.000000 0.000000
vt 1.000000 1.000000
vt 0.000000 1.000000
vt 0.000000 0.000000
vt 1.000000 0.000000
vt 1.000000 1.000000
vt 0.000000 1.000000
vt 0.000000 0.000000
vt 1.000000 0.000000
vt 1.000000 1.000000
vt 0.000000 1.000000
vt 0.000000 0.000000
vt 1.000000 0.000000
vt 1.000000 1.000000
vt 0.000000 1.000000
vt 0.000000 0.000000
vt 1.000000 0.000000
vt 1.000000 1.000000
vt 0.000000 1.000000
vt 0.000000 0.000000
vt 1.000000 0.000000
vt 1.000000 1.000000
vt 0.000000 1.000000
vt 1.000000 0.000000
vt 0.000000 0.000000
vt 1.000000 0.000000
vt 0.000000 0.000000
vt 1.000000 0.000000
vt 0.000000 0.000000
vt 1.000000 0.000000
vt 0.000000 0.000000
vt 1.000000 0.000000
vt 0.000000 0.000000
vt 1.000000 0.000000
vt 0.000000 0.000000
vn -0.4140 0.3548 0.8383
vn -0.7027 0.0000 0.7115
vn -0.4140 -0.3548 0.8383
vn 0.4140 -0.3548 0.8383
vn 0.7027 0.0000 0.7115
vn 0.4140 0.3548 0.8383
vn -0.4140 0.3548 -0.8383
vn -0.7027 0.0000 -0.7115
vn -0.4140 -0.3548 -0.8383
vn 0.4140 -0.3548 -0.8383
vn 0.7027 0.0000 -0.7115
vn 0.4140 0.3548 -0.8383
usemtl outside
s off
f 19/49/15 20/50/15 25/51/15 26/52/15
f 21/53/16 19/54/16 26/55/16 27/56/16
f 22/57/17 21/58/17 27/59/17 28/60/17
f 23/61/18 22/62/18 28/63/18 29/64/18
f 24/65/19 23/66/19 29/67/19 30/68/19
f 20/69/20 24/70/20 30/71/20 25/72/20
f 31/73/21 26/55/21 25/72/21 32/74/21
f 33/75/22 27/59/22 26/52/22 31/76/22
f 34/77/23 28/63/23 27/56/23 33/78/23
f 35/79/24 29/67/24 28/60/24 34/80/24
f 36/81/25 30/71/25 29/64/25 35/82/25
f 32/83/26 25/51/26 30/68/26 36/84/26
